<?xml version="1.0" encoding="UTF-8"?>
<svg version="1.1" xmlns="http://www.w3.org/2000/svg" width="1024" height="1024">
<path d="M0 0 C337.92 0 675.84 0 1024 0 C1024 337.92 1024 675.84 1024 1024 C686.08 1024 348.16 1024 0 1024 C0 686.08 0 348.16 0 0 Z " fill="#3B96DA" transform="translate(0,0)"/>
<path d="M0 0 C0 97.35 0 194.7 0 295 C-14.355 296.98 -14.355 296.98 -29 299 C-52.82617395 303.45236584 -75.02835429 309.75132565 -97 320 C-97.84159668 320.39058594 -98.68319336 320.78117187 -99.55029297 321.18359375 C-122.70412541 332.04599543 -142.77790735 346.24397883 -162 363 C-162.50337891 363.43876465 -163.00675781 363.8775293 -163.52539062 364.32958984 C-168.80811434 368.96322398 -173.77143238 373.66525876 -178.30078125 379.0390625 C-181.33424903 382.53975405 -184.58579497 385.86892417 -188 389 C-188.33 389 -188.66 389 -189 389 C-189.25205204 353.31335511 -189.44574467 317.62686691 -189.56171862 281.93951439 C-189.57547558 277.72155632 -189.5897132 273.50359999 -189.60424805 269.28564453 C-189.60713346 268.44596351 -189.61001888 267.60628249 -189.61299173 266.74115659 C-189.6607916 253.16416912 -189.74748521 239.58769659 -189.84868076 226.01101409 C-189.95172962 212.06888563 -190.01268467 198.12702592 -190.03497344 184.18453228 C-190.05002996 175.58835891 -190.09749211 166.99364121 -190.18708114 158.39791621 C-190.24545331 152.49483032 -190.26275116 146.59249136 -190.24851515 140.68913816 C-190.24150154 137.28744758 -190.25795796 133.89032159 -190.31126022 130.48874283 C-190.67438998 106.11128206 -190.67438998 106.11128206 -182.33286828 97.16379344 C-180.90694105 95.75700406 -179.4534479 94.37833742 -178 93 C-176.1079554 90.81351211 -174.30945704 88.56912879 -172.5 86.3125 C-161.61181935 73.51270407 -149.4998258 61.04723165 -136 51 C-135.39494629 50.5349707 -134.78989258 50.06994141 -134.16650391 49.59082031 C-100.51923099 23.76830562 -61.03211326 7.20629049 -19.125 0.875 C-17.52011719 0.62363281 -17.52011719 0.62363281 -15.8828125 0.3671875 C-10.61064904 -0.13138731 -5.29568545 0 0 0 Z " fill="#FDFEFE" transform="translate(710,355)"/>
<path d="M0 0 C1.43776499 -0.00823691 2.87554366 -0.01410755 4.31332397 -0.01898193 C5.11398474 -0.02250546 5.9146455 -0.02602898 6.73956871 -0.02965927 C9.41346714 0.00542513 11.96389183 0.29993512 14.6015625 0.734375 C16.06589722 0.97353638 16.06589722 0.97353638 17.55981445 1.2175293 C18.57132568 1.39324463 19.58283691 1.56895996 20.625 1.75 C22.22637817 2.02614136 22.22637817 2.02614136 23.86010742 2.30786133 C32.06997741 3.76295611 40.03798492 5.49970183 48 8 C49.45164551 8.45052734 49.45164551 8.45052734 50.93261719 8.91015625 C77.84974844 17.34531326 103.21378407 28.1555062 126 45 C126.54495117 45.4021875 127.08990234 45.804375 127.65136719 46.21875 C134.29493206 51.1484677 140.64885331 56.31293332 146.73828125 61.921875 C148.79026416 63.80728935 150.88151954 65.62770033 153 67.4375 C161.54097306 74.91299956 168.98425404 83.09495627 176 92 C176.99066095 93.24627221 177.98155822 94.4923566 178.97265625 95.73828125 C179.98238424 97.012535 180.99150647 98.28726902 182 99.5625 C182.48138428 100.17061523 182.96276855 100.77873047 183.45874023 101.40527344 C186.64608889 105.46346668 188.12533193 107.50447879 188.12304783 112.6345768 C188.12503888 113.61739305 188.12702993 114.60020931 188.12908131 115.61280787 C188.12616847 116.70033866 188.12325563 117.78786945 188.12025452 118.90835571 C188.12153615 120.63213631 188.12153615 120.63213631 188.12284368 122.39074075 C188.12421027 125.59007924 188.1210688 128.78937762 188.11606562 131.98871136 C188.11175979 135.43519785 188.11320764 138.88168236 188.1139679 142.32817078 C188.11449305 148.30262321 188.11134717 154.27706474 188.10573006 160.25151443 C188.09761386 168.88963732 188.09499971 177.52775492 188.09374207 186.1658812 C188.09155174 200.17960087 188.08489216 214.19331473 188.07543945 228.20703125 C188.06626485 241.82259085 188.05918425 255.43814887 188.05493164 269.05371094 C188.05466892 269.89253125 188.05440619 270.73135156 188.05413551 271.59559067 C188.0528305 275.80357341 188.05156679 280.01155616 188.05032361 284.21953893 C188.03995158 319.14636343 188.02233378 354.07318118 188 389 C187.34 389 186.68 389 186 389 C184.67308973 387.48483244 183.41516168 385.90914348 182.1875 384.3125 C173.62139122 373.62892612 163.81012366 364.39243534 153 356 C151.7574362 355.0056784 150.51527575 354.01085262 149.2734375 353.015625 C128.59935232 336.63332492 105.71139961 323.67004577 81.24316406 313.89794922 C79.18400402 313.07365768 77.13494379 312.22802034 75.0859375 311.37890625 C54.4173558 303.02062266 31.78998417 298.598038 9.64746094 296.64550781 C8.84083008 296.57428711 8.03419922 296.50306641 7.203125 296.4296875 C6.13046387 296.34050049 6.13046387 296.34050049 5.03613281 296.24951172 C2.96032844 295.99513857 1.022505 295.52314347 -1 295 C-1.07651323 231.98545453 -0.89397101 168.97458617 -0.55461788 105.96098185 C-0.49220729 94.3534749 -0.43266053 82.74595366 -0.37324238 71.13843107 C-0.25179949 47.42560477 -0.12711573 23.71279653 0 0 Z " fill="#FEFEFE" transform="translate(311,355)"/>
<path d="M0 0 C0.90857319 2.72571957 1.12630017 4.30244305 1.13028526 7.10334587 C1.13390961 7.94225046 1.13753396 8.78115505 1.14126813 9.64548099 C1.13966576 11.02799869 1.13966576 11.02799869 1.13803101 12.43844604 C1.14085229 13.41753406 1.14367357 14.39662207 1.14658034 15.40537941 C1.15494366 18.70108769 1.15626606 21.99676244 1.15771484 25.29248047 C1.16238173 27.6493133 1.16752508 30.00614524 1.17311096 32.36297607 C1.18440197 37.44577831 1.19283125 42.52857464 1.19923019 47.61138535 C1.20989414 55.64460101 1.2301164 63.67777759 1.25234985 71.71096802 C1.2598296 74.45895944 1.26724332 77.20695105 1.27463722 79.9549427 C1.27741307 80.98508308 1.27741307 80.98508308 1.280245 82.03603437 C1.30117382 89.85425977 1.32000153 97.67248975 1.33789062 105.49072266 C1.3403479 106.56283189 1.3403479 106.56283189 1.34285481 107.65659989 C1.36914394 119.24103995 1.38778527 130.8254832 1.40448253 142.40994047 C1.42189899 154.30121762 1.45073897 166.19243216 1.4893719 178.08365929 C1.51067741 184.76112398 1.52590402 191.43852273 1.52817917 198.11602402 C1.53032107 204.3950954 1.54614373 210.67398058 1.57256889 216.9529953 C1.5797805 219.26006927 1.5818539 221.56716575 1.57846642 223.8742485 C1.574586 227.01891667 1.58898039 230.16298592 1.60800171 233.30758667 C1.60247201 234.22480369 1.59694232 235.14202072 1.59124506 236.0870322 C1.64125115 240.86213418 1.84426973 244.14946431 5 248 C8.7582452 250.09941123 12.43054002 250.38444072 16.6796875 250.7109375 C17.99018066 250.81913818 19.30067383 250.92733887 20.65087891 251.03881836 C21.34030579 251.09327118 22.02973267 251.147724 22.74005127 251.2038269 C41.81149974 252.73291228 60.75476041 254.97544858 79 261 C79.79744629 261.25201172 80.59489258 261.50402344 81.41650391 261.76367188 C118.32333593 273.47325844 148.72811951 292.80613007 177 319 C175 320 175 320 173.05151367 319.53442383 C172.26494385 319.26138428 171.47837402 318.98834473 170.66796875 318.70703125 C169.79422607 318.40845215 168.9204834 318.10987305 168.02026367 317.80224609 C167.08545166 317.47562988 166.15063965 317.14901367 165.1875 316.8125 C163.25023913 316.15424373 161.31274002 315.49668818 159.375 314.83984375 C156.43629184 313.83548154 153.49891232 312.8274664 150.5625 311.81640625 C126.23491875 303.85044554 99.16684795 299.86097338 73.5859375 299.83203125 C72.53201813 299.82870285 71.47809875 299.82537445 70.39224243 299.82194519 C68.17539908 299.8169159 65.95854827 299.81453562 63.74169922 299.81469727 C60.40449094 299.81251925 57.06761842 299.79434331 53.73046875 299.77539062 C41.65563625 299.74301917 29.9409298 300.19440304 18 302 C16.89205078 302.15670166 15.78410156 302.31340332 14.64257812 302.47485352 C11.61087695 302.91418607 8.58687841 303.38804087 5.5625 303.875 C4.11520508 304.09736328 4.11520508 304.09736328 2.63867188 304.32421875 C-6.70779984 305.81625771 -15.70335708 307.93407935 -25 310 C-25 210.01 -25 110.02 -25 7 C-20.15900135 4.92528629 -15.81714422 3.23694072 -10.8125 1.8125 C-9.62269531 1.46832031 -8.43289063 1.12414062 -7.20703125 0.76953125 C-4 0 -4 0 0 0 Z " fill="#FAFCFE" transform="translate(287,421)"/>
<path d="M0 0 C7 0 7 0 25 6 C25 105.66 25 205.32 25 308 C13.80080984 306.88008098 13.80080984 306.88008098 9.5390625 305.9140625 C-27.25921891 297.88267917 -66.57969689 295.72422715 -104 301 C-105.09828125 301.144375 -106.1965625 301.28875 -107.328125 301.4375 C-127.67243395 304.48370669 -147.96326013 309.99650007 -167.32348633 316.8527832 C-168.58841919 317.29303833 -168.58841919 317.29303833 -169.87890625 317.7421875 C-170.6272876 318.0088623 -171.37566895 318.27553711 -172.14672852 318.55029297 C-174 319 -174 319 -176 318 C-158.39054352 301.15617206 -139.47324519 287.51495873 -118 276 C-116.88367188 275.39414062 -115.76734375 274.78828125 -114.6171875 274.1640625 C-86.32621113 259.38319778 -53.78223185 251.21318623 -21.9140625 250.5703125 C-15.32659345 250.34051707 -8.15115195 249.75725796 -3 245.25 C-0.38438765 239.36487222 -0.84867371 232.52549265 -0.84178162 226.19874573 C-0.83684364 225.2290464 -0.83190566 224.25934707 -0.82681805 223.26026291 C-0.81149616 220.02059686 -0.80309683 216.78095055 -0.79467773 213.54125977 C-0.78509504 211.21513191 -0.77508473 208.88900579 -0.76467896 206.56288147 C-0.73766628 200.25359091 -0.71663701 193.94429291 -0.69667697 187.63497663 C-0.67701245 181.70765634 -0.65287247 175.78035571 -0.62875474 169.85305213 C-0.58114305 158.11599604 -0.53786156 146.37892817 -0.49731445 134.6418457 C-0.45792678 123.24307336 -0.41649276 111.84431147 -0.37231445 100.44555664 C-0.36822804 99.3909188 -0.36822804 99.3909188 -0.36405908 98.31497515 C-0.35037907 94.78762864 -0.3366589 91.2602823 -0.32291877 87.73293602 C-0.20905495 58.48864612 -0.10229571 29.24433261 0 0 Z " fill="#FDFDFE" transform="translate(732,422)"/>
<path d="M0 0 C1.00726639 0.01862595 1.00726639 0.01862595 2.03488159 0.03762817 C11.72775913 0.22130338 20.51179461 0.95562157 29.49755859 4.88134766 C31.80559157 5.8825646 34.14312072 6.78846392 36.48828125 7.69921875 C54.1527351 14.72784597 69.43489788 23.99283865 83.5 36.75 C84.41523437 37.54535156 85.33046875 38.34070313 86.2734375 39.16015625 C91.46398313 43.70383208 96.15586263 48.39408705 100.5 53.75 C101.24765625 54.64847656 101.9953125 55.54695313 102.765625 56.47265625 C112.34279042 68.38387928 119.94666431 81.5074087 125.9375 95.5625 C126.24316895 96.27744629 126.54883789 96.99239258 126.86376953 97.72900391 C131.55439714 109.24141865 134.19539878 120.29577643 134.07641602 132.72119141 C134.06230833 134.77794372 134.09708058 136.83033087 134.13476562 138.88671875 C134.11861163 149.88220483 134.11861163 149.88220483 131.08984375 153.625 C127.05886002 156.93247383 124.23950123 157.29196544 119.1015625 157.203125 C115.2565605 156.53342495 113.49253429 154.95550798 111.015625 152.015625 C105.80356455 144.22440062 103.85991115 135.47097853 101.625 126.5 C99.17467057 116.69631633 96.08061233 107.75183504 91.5 98.75 C90.91734375 97.58597656 90.3346875 96.42195313 89.734375 95.22265625 C74.33780036 66.46728891 48.76286852 46.75144279 18.5 35.75 C17.69304688 35.44449219 16.88609375 35.13898438 16.0546875 34.82421875 C11.6525783 33.24043407 7.28372541 32.31058212 2.6875 31.4375 C-6.27822847 29.56681287 -15.8995722 26.33793052 -21.5546875 18.66796875 C-23.43155268 14.85994891 -23.62909475 11.81771239 -22.5 7.75 C-16.88986376 -0.47819982 -9.16872702 -0.28214088 0 0 Z " fill="#FDFDFE" transform="translate(737.5,184.25)"/>
<path d="M0 0 C26.0208713 13.68571778 43.98683124 36.36287663 53.66015625 63.73046875 C56.55705595 73.28350079 56.7007465 80.54744578 52.046875 89.49609375 C49.86891227 92.61975082 47.97936383 94.3444329 44.1953125 95.09375 C43.36773438 95.1040625 42.54015625 95.114375 41.6875 95.125 C40.86507812 95.1559375 40.04265625 95.186875 39.1953125 95.21875 C34.83788012 94.23606495 31.8939108 91.60341333 29.45019531 87.97216797 C28.42665611 86.11578892 27.51362053 84.23702104 26.625 82.3125 C26.28782959 81.61608398 25.95065918 80.91966797 25.60327148 80.20214844 C23.90569083 76.65486989 22.31393063 73.07586247 20.8125 69.44140625 C13.22575747 51.0868787 0.86759573 35.56219884 -17.81542969 27.61328125 C-21.27949286 26.22924682 -24.76070909 24.89285047 -28.24511719 23.56103516 C-36.5229878 20.33727326 -44.26320046 16.87209635 -48.4375 8.625 C-49.07447474 3.60882396 -49.09973057 1.70112468 -46.4375 -2.625 C-33.23700415 -16.15828146 -14.36612438 -6.874878 0 0 Z " fill="#FCFDFE" transform="translate(763.4375,246.375)"/>
<path d="M0 0 C3.78523893 2.01090818 5.67276458 5.08079373 7 9.0625 C7.91473602 19.96489162 8.96890312 32.82541633 1.62109375 41.734375 C1.16863281 42.23453125 0.71617187 42.7346875 0.25 43.25 C-2.59511747 46.80639684 -2.48578226 48.60949591 -2 53.0625 C-1.71479595 54.73807379 -1.40044304 56.41067245 -1 58.0625 C-0.41992188 58.14886719 0.16015625 58.23523438 0.7578125 58.32421875 C6.59593543 59.37431017 9.83984758 60.80088045 14 65.0625 C17.24914892 70.16669934 16.80090691 76.26282924 16 82.0625 C14.5039409 85.28777027 12.76098638 87.80811663 10 90.0625 C7.796875 90.765625 7.796875 90.765625 6 91.0625 C6.144375 91.80113281 6.28875 92.53976562 6.4375 93.30078125 C9.66203858 110.9237803 9.66203858 110.9237803 6.94921875 116.046875 C5.20667836 118.2057746 3.48974771 119.81762614 1 121.0625 C-9.21530231 122.0806919 -9.21530231 122.0806919 -13.625 119.1875 C-16.05105241 117.01682153 -16.87051081 116.18120171 -17.23828125 113.00390625 C-17.43633041 106.65590936 -17.43633041 106.65590936 -15.4375 103.9375 C-11.95093127 102.68591123 -9.54787528 103.14268048 -6 104.0625 C-3.81620554 107.3381917 -3.45724361 108.26320529 -4 112.0625 C-6 114.875 -6 114.875 -8 117.0625 C-6.1128125 117.1553125 -6.1128125 117.1553125 -4.1875 117.25 C-3.47980469 117.28480469 -2.77210938 117.31960938 -2.04296875 117.35546875 C0.6432168 116.9702605 1.34598872 116.18809034 3 114.0625 C3.41233375 111.74478031 3.41233375 111.74478031 3.29296875 109.17578125 C3.28330078 108.23798828 3.27363281 107.30019531 3.26367188 106.33398438 C3.23853516 105.35751953 3.21339844 104.38105469 3.1875 103.375 C3.17396484 102.38693359 3.16042969 101.39886719 3.14648438 100.38085938 C3.11112203 97.94085769 3.06177033 95.50195281 3 93.0625 C2.07058594 93.10890625 1.14117188 93.1553125 0.18359375 93.203125 C-8.35232984 93.45234905 -13.2909013 93.49129521 -19.640625 87.51953125 C-24.83632559 82.00855756 -27.0757667 76.34064169 -27.5625 68.8125 C-27.3187874 62.01666788 -24.84967233 56.6077747 -21 51.0625 C-19.04938686 49.36608199 -17.0906135 47.67901437 -15.125 46 C-11.84615466 42.9999898 -10.2018599 40.48743387 -9.56982422 36.02587891 C-9.38065723 31.24381879 -9.48388996 26.53279934 -9.79150391 21.75756836 C-10.32892713 13.08034536 -9.43836826 8.46790934 -4 1.5 C-2 0.0625 -2 0.0625 0 0 Z " fill="#3E96DA" transform="translate(609,483.9375)"/>
<path d="M0 0 C5.45249412 3.33826171 9.92500187 7.96437986 12.234375 13.96875 C13.2496121 20.83930807 13.44205196 28.1851913 9.57421875 34.21484375 C9.13207031 34.79363281 8.68992187 35.37242187 8.234375 35.96875 C7.80253906 36.64035156 7.37070312 37.31195313 6.92578125 38.00390625 C3.63941116 41.96804091 0.3659207 43.1255333 -4.640625 43.68359375 C-20.24483445 44.63415342 -20.24483445 44.63415342 -26.453125 39.15625 C-32.83881804 31.89797779 -32.57027998 25.45128731 -32.34375 16.125 C-31.94584322 10.506074 -30.29507679 7.30009128 -26.1015625 3.4921875 C-18.13266171 -1.70492171 -9.19055964 -3.42698834 0 0 Z " fill="#FBFDFE" transform="translate(746.765625,298.03125)"/>
<path d="M0 0 C16.83 0 33.66 0 51 0 C51 0.33 51 0.66 51 1 C50.20078125 1.01417969 49.4015625 1.02835937 48.578125 1.04296875 C36.6579508 1.5606289 26.99156436 5.10306086 18 13 C17.11054687 13.75023437 17.11054687 13.75023437 16.203125 14.515625 C7.73906138 22.23065644 2.1362665 32.9560025 1.375 44.375 C1.30023438 45.43460938 1.22546875 46.49421875 1.1484375 47.5859375 C1.09945312 48.38257813 1.05046875 49.17921875 1 50 C0.67 50 0.34 50 0 50 C0 33.5 0 17 0 0 Z " fill="#F9FDFE" transform="translate(0,0)"/>
<path d="M0 0 C2.13239982 3.19859973 3.02126003 5.9710468 4.1875 9.625 C6.18945707 15.40378355 8.51995743 19.65203855 12.546875 24.23046875 C14 26 14 26 15 29 C16.84131793 30.06169706 16.84131793 30.06169706 19 31 C20.38533975 31.94332473 21.75980995 32.90274288 23.125 33.875 C27.15643584 36.60704743 31.17632677 38.46570451 35.73828125 40.140625 C38 41 38 41 42 43 C28.14 43 14.28 43 0 43 C0 28.81 0 14.62 0 0 Z " fill="#FBFDFE" transform="translate(0,981)"/>
<path d="M0 0 C14.19 0 28.38 0 43 0 C43 15.18 43 30.36 43 46 C42.67 46 42.34 46 42 46 C41.92523437 45.34515625 41.85046875 44.6903125 41.7734375 44.015625 C40.00417983 31.73489531 34.10461684 19.62891296 24.25 11.8125 C16.75589657 6.56947707 8.81529418 3.30698124 0 1 C0 0.67 0 0.34 0 0 Z " fill="#FBFDFE" transform="translate(981,0)"/>
<path d="M0 0 C0.33 0 0.66 0 1 0 C1 14.52 1 29.04 1 44 C-13.19 44 -27.38 44 -42 44 C-42 43.67 -42 43.34 -42 43 C-41.17757812 42.78085937 -40.35515625 42.56171875 -39.5078125 42.3359375 C-24.88591749 38.18237379 -13.86456991 31.25427516 -6 18 C-3.11008627 12.0938781 -0.9085567 6.53387583 0 0 Z " fill="#FBFCFE" transform="translate(1023,980)"/>
<path d="M0 0 C0.79767941 3.39181327 1.31295304 6.51578951 1 10 C-0.55711508 12.03622742 -2.10723917 13.23926972 -4.23828125 14.6484375 C-6.31967584 16.2452502 -7.04617956 17.5755106 -8 20 C-8.52290152 24.00891163 -8.15085794 25.72429412 -6.1875 29.3125 C-4.21519158 32.22612346 -4.21519158 32.22612346 -1 33 C-1.66 32.01 -2.32 31.02 -3 30 C-3.30078125 27.84375 -3.30078125 27.84375 -3.3125 25.5 C-3.32925781 24.7265625 -3.34601562 23.953125 -3.36328125 23.15625 C-2.91206355 20.47805462 -2.17518797 19.58936451 0 18 C0.99 18 1.98 18 3 18 C3.67189656 20.91555115 4.33769308 23.83226951 5 26.75 C5.19078125 27.575 5.3815625 28.4 5.578125 29.25 C5.84882812 30.44882812 5.84882812 30.44882812 6.125 31.671875 C6.29257812 32.4050293 6.46015625 33.13818359 6.6328125 33.89355469 C7 36 7 36 7 40 C-6.25942962 40.78380865 -6.25942962 40.78380865 -12 36 C-16.07821877 30.93570446 -16.74817383 25.32250071 -16.5078125 18.9609375 C-15.17677308 11.19995378 -9.49329692 6.13671307 -3.734375 1.21484375 C-2 0 -2 0 0 0 Z " fill="#F6FAFD" transform="translate(604,534)"/>
<path d="M0 0 C8.00130663 0.31625718 12.62746732 1.53871646 18.375 7.4375 C20.87343944 12.914848 20.99106411 18.08952343 20 24 C18.39427502 27.11399266 16.4902701 29.54678749 14 32 C12.02 31.67 10.04 31.34 8 31 C8.825 30.21625 9.65 29.4325 10.5 28.625 C13.47800614 25.04288404 13.72577555 21.90558718 13.4921875 17.34375 C12.72415383 13.68644681 10.99278698 12.10855446 8 10 C5.89760883 9.36976122 5.89760883 9.36976122 4 9 C4.30035156 10.03640625 4.60070312 11.0728125 4.91015625 12.140625 C5.29478338 13.51027284 5.67886969 14.88007263 6.0625 16.25 C6.26166016 16.93191406 6.46082031 17.61382813 6.66601562 18.31640625 C8.40009269 24.58342161 8.40009269 24.58342161 7 28 C6.34 28 5.68 28 5 28 C4.49645133 25.56318413 3.99703244 23.12564561 3.5 20.6875 C3.35691406 19.99720703 3.21382812 19.30691406 3.06640625 18.59570312 C2.47374956 15.67475227 2 12.98891878 2 10 C-0.66250834 10.84397306 -0.66250834 10.84397306 -3 13 C-3.95447219 17.42295597 -3.47745614 21.02519371 -1.5 25.0625 C-1.005 25.701875 -0.51 26.34125 0 27 C-4.42741644 25.64717831 -6.36309221 23.76701112 -9 20 C-10.43304064 17.13391871 -10.30644155 15.18699217 -10 12 C-7.6385049 7.62686092 -4.92905924 4.97334213 -1 2 C-0.67 1.34 -0.34 0.68 0 0 Z " fill="#3D95D9" transform="translate(605,542)"/>
<path d="M0 0 C2.92853654 1.55578504 4.23251415 3.25890176 6 6.0625 C6.75 9.875 6.75 9.875 7 13.0625 C4 13.0625 4 13.0625 2.0625 12.3125 C-0.14747535 11.81064891 -0.14747535 11.81064891 -2.125 13.5625 C-4.40220374 16.59877165 -5.15240381 19.38958317 -6 23.0625 C-8.78174197 21.12737515 -9.08415299 19.73149825 -9.9375 16.375 C-10.49165883 10.35683508 -7.58191144 6.08932404 -4 1.5 C-2 0.0625 -2 0.0625 0 0 Z " fill="#4197DA" transform="translate(609,483.9375)"/>
<path d="M0 0 C1.32 0.66 2.64 1.32 4 2 C4.65953546 9.12298296 2.91101579 14.01720287 -1 20 C-3.8125 22.625 -3.8125 22.625 -6 24 C-8.32105708 19.35788584 -7.20249947 13.12295162 -6.3125 8.1875 C-4.81126896 4.54165319 -2.95619676 2.5672235 0 0 Z " fill="#F2F8FC" transform="translate(609,495)"/>
<path d="M0 0 C2.18379446 3.2756917 2.54275639 4.20070529 2 8 C0.0625 10.625 0.0625 10.625 -2 13 C-2.33 13.99 -2.66 14.98 -3 16 C-5.55390984 15.63515574 -7.0891745 14.94055033 -9.25 13.5 C-11.51991846 10.25725934 -11.57758194 7.95660447 -11.37890625 4.06640625 C-11 2 -11 2 -9.4375 -0.125 C-5.95093127 -1.37658877 -3.54787528 -0.91981952 0 0 Z " fill="#4097DA" transform="translate(603,588)"/>
<path d="M0 0 C6 1 6 1 8.375 2.9375 C10.69095659 7.30218741 10.809954 11.15615745 10 16 C8.125 19.125 8.125 19.125 6 21 C5.34 21 4.68 21 4 21 C2.68 14.07 1.36 7.14 0 0 Z " fill="#F4F9FC" transform="translate(609,551)"/>
<path d="M0 0 C0.33 0 0.66 0 1 0 C2.25252082 5.7929088 3.80618252 13.53590367 0.953125 19.0078125 C-0.80124284 21.14401334 -2.51895582 22.75947791 -5 24 C-6.87379605 24.07033769 -8.75001102 24.0843022 -10.625 24.0625 C-11.62789062 24.05347656 -12.63078125 24.04445313 -13.6640625 24.03515625 C-14.43492187 24.02355469 -15.20578125 24.01195312 -16 24 C-15.01 22.515 -15.01 22.515 -14 21 C-11.99724325 20.74568168 -9.98946733 20.49672377 -7.97265625 20.40625 C-5.3616231 19.86853228 -4.52542778 19.18582639 -3 17 C-2.49343235 14.20449695 -2.49343235 14.20449695 -2.4375 11.125 C-2.26496146 6.95270428 -1.74947548 3.80809521 0 0 Z " fill="#4B9DDC" transform="translate(615,581)"/>
<path d="M0 0 C2 3 2 3 2.875 5.5625 C3.78506387 8.10635384 3.78506387 8.10635384 5.9375 9.25 C9.61247417 10.58635424 12.79413471 11.24186992 16.6875 11.5625 C17.68136719 11.64628906 18.67523437 11.73007812 19.69921875 11.81640625 C20.45847656 11.87699219 21.21773437 11.93757812 22 12 C22 12.33 22 12.66 22 13 C21.38511719 13.06058594 20.77023437 13.12117187 20.13671875 13.18359375 C18.92435547 13.30927734 18.92435547 13.30927734 17.6875 13.4375 C16.88699219 13.51871094 16.08648438 13.59992187 15.26171875 13.68359375 C12.83912821 13.95265693 12.83912821 13.95265693 10 15 C4.41471781 12.47081561 0.43744273 9.11209432 -3 4 C-3 3.34 -3 2.68 -3 2 C-2.01 2 -1.02 2 0 2 C0 1.34 0 0.68 0 0 Z " fill="#479ADB" transform="translate(588,562)"/>
<path d="M0 0 C0.33 0 0.66 0 1 0 C2.22517308 5.66642551 2.09228867 11.23708518 2 17 C0.68 16.67 -0.64 16.34 -2 16 C-2.05449838 14.27119018 -2.09301688 12.54187288 -2.125 10.8125 C-2.14820313 9.84957031 -2.17140625 8.88664063 -2.1953125 7.89453125 C-1.9913544 4.87187222 -1.26874632 2.73230015 0 0 Z " fill="#54A1DE" transform="translate(615,581)"/>
<path d="M0 0 C0.33 0 0.66 0 1 0 C1 2.64 1 5.28 1 8 C1.66 8 2.32 8 3 8 C2.6875 9.875 2.6875 9.875 2 12 C-1 14 -1 14 -3.6875 13.625 C-4.450625 13.41875 -5.21375 13.2125 -6 13 C-5.195625 12.154375 -4.39125 11.30875 -3.5625 10.4375 C-0.78371338 7.1484842 -0.25882224 4.31370396 0 0 Z " fill="#51A0DD" transform="translate(619,560)"/>
<path d="M0 0 C0.33 0 0.66 0 1 0 C1.12117187 0.61488281 1.24234375 1.22976563 1.3671875 1.86328125 C1.53476562 2.67152344 1.70234375 3.47976563 1.875 4.3125 C2.03742187 5.11300781 2.19984375 5.91351562 2.3671875 6.73828125 C2.94478999 9.25301118 2.94478999 9.25301118 5 12 C1.08597051 10.73058503 -0.79072873 9.48832306 -3 6 C-2.01 6 -1.02 6 0 6 C0 4.02 0 2.04 0 0 Z " fill="#55A2DE" transform="translate(600,557)"/>
<path d="M0 0 C0.33 0 0.66 0 1 0 C3.27678571 8.03571429 3.27678571 8.03571429 2 12 C1.34 12 0.68 12 0 12 C-0.19573608 10.56359829 -0.38127816 9.12580496 -0.5625 7.6875 C-0.66691406 6.88699219 -0.77132812 6.08648438 -0.87890625 5.26171875 C-1 3 -1 3 0 0 Z " fill="#53A1DE" transform="translate(610,558)"/>
<path d="M0 0 C0.99 0 1.98 0 3 0 C2.75 1.875 2.75 1.875 2 4 C-0.0625 5.25 -0.0625 5.25 -2 6 C-2 2 -2 2 0 0 Z " fill="#4097DA" transform="translate(613,597)"/>
<path d="M0 0 C4.29 0.33 8.58 0.66 13 1 C13 1.33 13 1.66 13 2 C12.07767578 2.09087891 12.07767578 2.09087891 11.13671875 2.18359375 C10.32847656 2.26738281 9.52023437 2.35117187 8.6875 2.4375 C7.88699219 2.51871094 7.08648438 2.59992187 6.26171875 2.68359375 C3.83912821 2.95265693 3.83912821 2.95265693 1 4 C0.01 3.34 -0.98 2.68 -2 2 C-1.34 2 -0.68 2 0 2 C0 1.34 0 0.68 0 0 Z " fill="#6EB0E3" transform="translate(597,573)"/>
<path d="M0 0 C2.28062828 3.42094242 2.21925007 4.68187222 2.125 8.6875 C2.10695313 9.68136719 2.08890625 10.67523438 2.0703125 11.69921875 C2.03550781 12.83810547 2.03550781 12.83810547 2 14 C1.67 14 1.34 14 1 14 C0.63794536 12.04310963 0.28558579 10.08442332 -0.0625 8.125 C-0.25972656 7.03445313 -0.45695313 5.94390625 -0.66015625 4.8203125 C-1 2 -1 2 0 0 Z " fill="#328FD7" transform="translate(614,494)"/>
<path d="M0 0 C0.33 0 0.66 0 1 0 C1.33 3.3 1.66 6.6 2 10 C0.68 9.67 -0.64 9.34 -2 9 C-1.855625 8.443125 -1.71125 7.88625 -1.5625 7.3125 C-0.97230872 4.88615805 -0.476571 2.45093655 0 0 Z " fill="#3490D8" transform="translate(586,554)"/>
<path d="M0 0 C0.33 0 0.66 0 1 0 C1.33 3.96 1.66 7.92 2 12 C1.34 11.67 0.68 11.34 0 11 C-0.99716532 7.01133873 -1.0502717 3.9676931 0 0 Z " fill="#509FDD" transform="translate(605,531)"/>
<path d="M0 0 C2.62386487 3.06117568 3 3.73173127 3 8 C2.01 8 1.02 8 0 8 C0 5.36 0 2.72 0 0 Z " fill="#318ED7" transform="translate(599,501)"/>
</svg>
